<?xml version="1.0" encoding="UTF-8"?>
<!DOCTYPE svg PUBLIC "-//W3C//DTD SVG 1.1//EN" "http://www.w3.org/Graphics/SVG/1.1/DTD/svg11.dtd">
<!-- Creator: CorelDRAW -->
<svg xmlns="http://www.w3.org/2000/svg" xml:space="preserve" width="137.909mm" height="118.725mm" version="1.1" style="shape-rendering:geometricPrecision; text-rendering:geometricPrecision; image-rendering:optimizeQuality; fill-rule:evenodd; clip-rule:evenodd"
viewBox="0 0 13790.86 11872.5"
 xmlns:xlink="http://www.w3.org/1999/xlink"
 xmlns:xodm="http://www.corel.com/coreldraw/odm/2003">
 <defs>
  <style type="text/css">
   <![CDATA[
    .fil0 {fill:white}
   ]]>
  </style>
 </defs>
 <g id="Layer_x0020_1">
  <metadata id="CorelCorpID_0Corel-Layer"/>
  <g id="_1579576510400">
   <path class="fil0" d="M1798.99 5819.43c0,-1537.34 729.74,-3546.84 2458.82,-4430.78 587.19,-206.49 1207.17,-317.04 1848.1,-317.04 654.35,0 1286.89,115.25 1884.99,330.16l330.94 -1066.88c-654.22,-216.82 -1358.96,-334.89 -2093.37,-334.89 -3439.89,0 -6228.47,2590.17 -6228.47,5785.32 0,3195.14 2788.58,5785.3 6228.47,5785.3 803.3,0 1571.07,-141.25 2276.11,-398.47l0 700.34 1296.28 0 0 -5238.43 0 -104.71 960.44 0 394.28 1091.22c40.06,110.91 71.24,195.38 85.47,250.32 14.25,54.95 20.37,105.82 20.37,148.56 0,120.08 -47.11,202.94 -138.4,248.29 -204.82,101.72 -252.13,69.19 -520.51,69.19l0 1434.75 3188.34 0 0 -1434.75c-249.92,0 -274.58,18.56 -480.08,-113.97 -117.65,-75.87 -254.41,-300.34 -384.65,-679.72l-2444.15 -7120.49 -1717.62 0 -1347.07 4676.6 -0.95 3.02 -1285.67 4448.73c49.38,2.19 99.04,3.3 148.95,3.3 385.8,0 756.19,-65.99 1100.5,-187.28l717.38 -2491.93c270.3,282.54 407.09,711.2 407.09,1183.19l0 1446.79c-747.14,353.1 -1558.33,546.59 -2406.18,546.59 -840.71,0 -1645.38,-190.24 -2387.31,-537.68 -1383.38,-834.67 -1912.1,-2157.32 -1912.1,-3694.66zm6643.79 -132.19l964.65 -3309.58 1062.33 3309.58 -2026.98 0z"/>
   <polygon class="fil0" points="13790.86,10436.71 10602.51,10436.71 10602.51,11872.49 13790.86,11872.49 "/>
  </g>
 </g>
</svg>
